<?xml version="1.0"?>
<!DOCTYPE svg PUBLIC "-//W3C//DTD SVG 1.1//EN"
"http://www.w3.org/Graphics/SVG/1.1/DTD/svg11.dtd">
<svg id="Layer_1" data-name="Layer 1" xmlns="http://www.w3.org/2000/svg" viewBox="0 0 490.31 119.07"><defs><style>.cls-1,.cls-2{fill:#fff;}.cls-2{stroke:#fff;stroke-miterlimit:10;}</style></defs><title>logo_white</title><path class="cls-1" d="M54.72,270.36l7,8.52a.56.56,0,0,1,.19.41.72.72,0,0,1-.3.48l-3.81,2.8a.8.8,0,0,1-.42.21c-.1,0-.28-.13-.55-.4l-9.25-10.86a.61.61,0,0,1-.16-.35,3.91,3.91,0,0,1,.57-2.58l11.29-9.22c.23-.23.41-.35.55-.35a.51.51,0,0,1,.36.17l3.3,3.49a.77.77,0,0,1,.14.4.47.47,0,0,1-.16.35Z" transform="translate(-15.7 -212.33)"/><path class="cls-1" d="M84.79,243.06,70.5,298.45c-.09.48-.33.73-.7.73l-4-.89q-.54-.17-.54-.57l14.27-55.49a1.27,1.27,0,0,1,.22-.53.76.76,0,0,1,.51-.17l3.81.86C84.56,242.46,84.79,242.68,84.79,243.06Z" transform="translate(-15.7 -212.33)"/><path class="cls-1" d="M95.87,271.44l-7.05-8.52a.57.57,0,0,1-.18-.4.7.7,0,0,1,.29-.49l3.82-2.79a.86.86,0,0,1,.41-.22c.1,0,.29.14.56.41L103,270.28a.57.57,0,0,1,.16.35,4,4,0,0,1-.56,2.58l-11.29,9.22a1,1,0,0,1-.55.35.46.46,0,0,1-.36-.16l-3.31-3.49a.78.78,0,0,1-.13-.41.49.49,0,0,1,.16-.35Z" transform="translate(-15.7 -212.33)"/><path class="cls-1" d="M15.7,269.31,43.64,247.9l9.91.65L25.62,270l24.94,24.83-9.92-.64Z" transform="translate(-15.7 -212.33)"/><path class="cls-1" d="M76.91,212.33l23,26.63-.06,9.94-23-26.63L53.52,248.62l.06-9.94Z" transform="translate(-15.7 -212.33)"/><path class="cls-1" d="M134.75,274.42l-27.94,21.4-9.91-.64,27.93-21.4L99.9,248.94l9.91.65Z" transform="translate(-15.7 -212.33)"/><path class="cls-1" d="M73.54,331.4l-23-26.63.06-9.94,23,26.63,23.33-26.35-.06,9.94Z" transform="translate(-15.7 -212.33)"/><path class="cls-2" d="M164.84,299.63q-3.63-5.37-3.64-14.89V259q0-9.77,3.64-15t12.76-5.24q8.33,0,11.84,4.72T193,257.15v3.92H187.2v-3.76a32.42,32.42,0,0,0-.72-7.56,7.81,7.81,0,0,0-2.8-4.52,9.64,9.64,0,0,0-6-1.6c-2.82,0-5,.58-6.48,1.76a8.75,8.75,0,0,0-3,4.84,32.28,32.28,0,0,0-.8,7.88V285.7q0,7.53,2.28,11t8,3.43q5.69,0,7.6-3.47T187.2,286v-4.24H193v3.85c0,6.18-1.14,11-3.44,14.31s-6.26,5-11.92,5Q168.48,305,164.84,299.63Z" transform="translate(-15.7 -212.33)"/><path class="cls-2" d="M203.12,300.63q-2.72-4.29-2.72-13.16v-12.8q0-8.88,2.72-13.16c1.82-2.86,5-4.28,9.6-4.28s7.87,1.42,9.68,4.28,2.72,7.24,2.72,13.16v12.8q0,8.88-2.72,13.16t-9.68,4.27C208.13,304.9,204.94,303.48,203.12,300.63ZM217,299a7.57,7.57,0,0,0,1.8-4.12,48.42,48.42,0,0,0,.4-7.08V274.35a48.42,48.42,0,0,0-.4-7.08,7.57,7.57,0,0,0-1.8-4.12,5.52,5.52,0,0,0-4.28-1.52,5.39,5.39,0,0,0-4.24,1.52,7.77,7.77,0,0,0-1.76,4.12,48.42,48.42,0,0,0-.4,7.08v13.43a48.42,48.42,0,0,0,.4,7.08,7.77,7.77,0,0,0,1.76,4.12,5.4,5.4,0,0,0,4.24,1.53A5.52,5.52,0,0,0,217,299Z" transform="translate(-15.7 -212.33)"/><path class="cls-2" d="M234.92,300.43q-2.59-4.49-2.6-14.88V277q0-9.84,2.32-14.8t8.56-5q4.49,0,8.16,4V239.39h5.84v64.79h-5.84V300.9q-3.68,4-7.92,4Q237.52,304.9,234.92,300.43Zm16.44-3.21V265.07c-2.45-2.19-4.75-3.28-6.88-3.28a4.94,4.94,0,0,0-5,3.12c-.88,2.08-1.32,5.46-1.32,10.16V286q0,7.53,1.32,10.88a5,5,0,0,0,5.16,3.36Q248,300.26,251.36,297.22Z" transform="translate(-15.7 -212.33)"/><path class="cls-2" d="M270.64,303.14a10.2,10.2,0,0,1-4-5.67,35.65,35.65,0,0,1-1.28-10.65V275.15a34.31,34.31,0,0,1,1.32-10.68,9.91,9.91,0,0,1,4.08-5.56,13.62,13.62,0,0,1,7.16-1.68q4.8,0,7.4,2a10.74,10.74,0,0,1,3.6,6.12,47.66,47.66,0,0,1,1,11v4.16H271.2v8.08q0,6.63,1.52,9.27a5.41,5.41,0,0,0,5.12,2.65,5.84,5.84,0,0,0,4.68-1.92q1.64-1.93,1.64-7v-3.2h5.68V291c0,4.49-.93,7.92-2.8,10.32s-4.93,3.6-9.2,3.6A13,13,0,0,1,270.64,303.14Zm13.52-26v-3.84a38.51,38.51,0,0,0-.44-6.56,6.86,6.86,0,0,0-1.8-3.76,5.54,5.54,0,0,0-4.08-1.36,5.39,5.39,0,0,0-6,4.84,34.08,34.08,0,0,0-.64,7.56v3.12Z" transform="translate(-15.7 -212.33)"/><path class="cls-2" d="M307,244.11H294.8v-4.72H325v4.72H313.12v60.07H307Z" transform="translate(-15.7 -212.33)"/><path class="cls-2" d="M331.36,258h5.92v6.32a14.36,14.36,0,0,1,4.92-5.12,11.13,11.13,0,0,1,5.72-1.68,5.7,5.7,0,0,1,1,.08v6.24a9.06,9.06,0,0,0-2.88-.48q-5.52,0-8.8,5.36v35.51h-5.92Z" transform="translate(-15.7 -212.33)"/><path class="cls-2" d="M355.76,301.94a10.81,10.81,0,0,1-2.56-7.35,14.33,14.33,0,0,1,1.8-7.53,16.4,16.4,0,0,1,5.56-5.28,104.47,104.47,0,0,1,11.28-5.67v-3.29a33.21,33.21,0,0,0-.52-6.71,6,6,0,0,0-1.76-3.44,5.24,5.24,0,0,0-3.48-1q-6.48,0-6.48,7.91v1.61l-5.76-.08q.07-7.12,3-10.48t9.52-3.36q6.08,0,8.68,3.68t2.6,11.6V295c0,1.5,0,3.2.12,5.12s.17,3.29.28,4.08h-5.2l-.88-6.4a10.91,10.91,0,0,1-3.56,5.08,9.19,9.19,0,0,1-6,2A8.43,8.43,0,0,1,355.76,301.94Zm12.92-3.64a13,13,0,0,0,3.16-3.87V280q-5.44,2.88-7.88,4.49a12.06,12.06,0,0,0-3.68,3.55,9.35,9.35,0,0,0-1.24,5.08,7.54,7.54,0,0,0,1.48,5.12,4.8,4.8,0,0,0,3.8,1.68A6.6,6.6,0,0,0,368.68,298.3Z" transform="translate(-15.7 -212.33)"/><path class="cls-2" d="M388,300.43q-2.61-4.49-2.6-14.88V277q0-9.84,2.32-14.8t8.56-5c3,0,5.71,1.33,8.16,4V239.39h5.84v64.79H404.4V300.9c-2.45,2.67-5.1,4-7.92,4Q390.55,304.9,388,300.43Zm16.44-3.21V265.07c-2.45-2.19-4.75-3.28-6.88-3.28a4.94,4.94,0,0,0-5,3.12c-.88,2.08-1.32,5.46-1.32,10.16V286q0,7.53,1.32,10.88a5,5,0,0,0,5.16,3.36Q401,300.26,404.4,297.22Z" transform="translate(-15.7 -212.33)"/><path class="cls-2" d="M423.68,303.14a10.2,10.2,0,0,1-4-5.67,35.33,35.33,0,0,1-1.28-10.65V275.15a34.31,34.31,0,0,1,1.32-10.68,9.91,9.91,0,0,1,4.08-5.56,13.62,13.62,0,0,1,7.16-1.68q4.8,0,7.4,2a10.74,10.74,0,0,1,3.6,6.12,47.66,47.66,0,0,1,1,11v4.16H424.24v8.08c0,4.42.5,7.51,1.52,9.27a5.41,5.41,0,0,0,5.12,2.65,5.87,5.87,0,0,0,4.68-1.92q1.63-1.93,1.64-7v-3.2h5.68V291c0,4.49-.93,7.92-2.8,10.32s-4.94,3.6-9.2,3.6A13,13,0,0,1,423.68,303.14Zm13.52-26v-3.84a38.51,38.51,0,0,0-.44-6.56A6.93,6.93,0,0,0,435,263a5.54,5.54,0,0,0-4.08-1.36,5.39,5.39,0,0,0-6,4.84,34.08,34.08,0,0,0-.64,7.56v3.12Z" transform="translate(-15.7 -212.33)"/><path class="cls-2" d="M451.2,295.39h6.16v8.79H451.2Z" transform="translate(-15.7 -212.33)"/><path class="cls-2" d="M466,243.63h5.84v7.92H466ZM466,258h5.84v46.23H466Z" transform="translate(-15.7 -212.33)"/><path class="cls-2" d="M483.52,300.63q-2.73-4.29-2.72-13.16v-12.8q0-8.88,2.72-13.16t9.6-4.28q7,0,9.68,4.28t2.72,13.16v12.8q0,8.88-2.72,13.16t-9.68,4.27Q486.23,304.9,483.52,300.63ZM497.4,299a7.65,7.65,0,0,0,1.8-4.12,49.88,49.88,0,0,0,.4-7.08V274.35a49.88,49.88,0,0,0-.4-7.08,7.65,7.65,0,0,0-1.8-4.12,5.53,5.53,0,0,0-4.28-1.52,5.38,5.38,0,0,0-4.24,1.52,7.69,7.69,0,0,0-1.76,4.12,48.42,48.42,0,0,0-.4,7.08v13.43a48.42,48.42,0,0,0,.4,7.08,7.69,7.69,0,0,0,1.76,4.12,5.38,5.38,0,0,0,4.24,1.53A5.53,5.53,0,0,0,497.4,299Z" transform="translate(-15.7 -212.33)"/></svg>